<svg xmlns="http://www.w3.org/2000/svg" fill="none" viewBox="7.98 4.54 22.04 28.92">
<path d="M28.5 7.59996V6.45996H9.5V7.59996C9.5 11.4418 12.3891 15.9258 15.512 18.3965C15.9053 18.7077 15.9053 19.2926 15.512 19.6034C12.3891 22.0742 9.5 26.5582 9.5 30.4V31.54H28.5V30.4C28.5 26.5582 25.6109 22.0742 22.488 19.6034C22.0947 19.2922 22.0947 18.7074 22.488 18.3965C25.6109 15.9258 28.5 11.4418 28.5 7.59996Z" fill="#81D4FA"/>
<path d="M17.4701 23.3348C13.7496 25.3108 11.02 31.1601 11.02 31.1601H26.98C26.98 31.1601 24.2505 25.3108 20.5299 23.3348C20.0526 23.0813 19.76 22.5805 19.76 22.0401V18.247C19.76 17.6378 20.1028 17.0663 20.6602 16.8216C22.8901 15.8435 24.5818 13.18 25.1902 12.1134C25.3171 11.8907 25.1906 11.6057 24.9398 11.5529C21.0376 10.7309 16.7956 10.8442 13.0709 11.5609C12.8163 11.6099 12.6859 11.8968 12.8148 12.1221C13.4269 13.1945 15.116 15.8465 17.3402 16.822C17.8976 17.0663 18.24 17.6378 18.24 18.2466V22.0401C18.24 22.5805 17.9474 23.0813 17.4701 23.3348Z" fill="#F7BC30"/>
<path d="M19 4.55989C14.8435 4.52493 10.4549 4.54469 8.73428 4.55495C8.31628 4.55761 7.97998 4.89695 7.97998 5.31495V6.54843C7.97998 6.93337 8.26574 7.25751 8.64802 7.30273C10.3041 7.49995 14.7721 7.97989 19 7.97989C23.2279 7.97989 27.6959 7.49995 29.3519 7.30273C29.7342 7.25713 30.02 6.93337 30.02 6.54843V5.31495C30.02 4.89695 29.6837 4.55761 29.2657 4.55495C27.545 4.54469 23.1564 4.52493 19 4.55989Z" fill="#8338EC"/>
<path d="M19 30.02C14.7721 30.02 10.3041 30.5 8.64802 30.6972C8.26574 30.7428 7.97998 31.0665 7.97998 31.4515V32.685C7.97998 33.103 8.31628 33.4423 8.73428 33.445C10.4549 33.4552 14.8435 33.475 19 33.44C23.1564 33.475 27.545 33.4552 29.2657 33.445C29.6837 33.4423 30.02 33.103 30.02 32.685V31.4515C30.02 31.0665 29.7342 30.7424 29.3519 30.6972C27.6959 30.5 23.2279 30.02 19 30.02Z" fill="#8338EC"/>
<rect x="20.8223" y="8.72998" width="4" height="4" rx="2" fill="white"/>
<path d="M22.8223 11.73C23.3745 11.73 23.8223 11.2823 23.8223 10.73C23.8223 10.1777 23.3745 9.72998 22.8223 9.72998C22.27 9.72998 21.8223 10.1777 21.8223 10.73C21.8223 11.2823 22.27 11.73 22.8223 11.73Z" fill="#FB5607"/>
<rect x="13.8223" y="8.72998" width="4" height="4" rx="2" fill="white"/>
<path d="M15.8223 11.73C16.3745 11.73 16.8223 11.2823 16.8223 10.73C16.8223 10.1777 16.3745 9.72998 15.8223 9.72998C15.27 9.72998 14.8223 10.1777 14.8223 10.73C14.8223 11.2823 15.27 11.73 15.8223 11.73Z" fill="#FB5607"/>
<path d="M19.2535 15.909C20.2071 15.909 20.9932 15.0921 21.0994 14.0411C21.1122 13.9125 21.0294 13.7979 20.9157 13.7979C20.2731 13.7979 18.2339 13.7979 17.5913 13.7979C17.4777 13.7979 17.3944 13.913 17.4076 14.0411C17.5138 15.0921 18.3 15.909 19.2535 15.909Z" fill="#4A254B"/>
<path d="M28.4991 30.5985C28.4919 30.5985 28.4851 30.5981 28.4779 30.5974C26.5095 30.3819 22.6604 30.0201 18.9999 30.0201C15.3394 30.0201 11.4903 30.3819 9.52194 30.5977C9.41896 30.6065 9.32396 30.5343 9.31218 30.4294C9.30078 30.3253 9.37602 30.2314 9.48014 30.22C11.4565 30.0034 15.3215 29.6401 18.9999 29.6401C22.6783 29.6401 26.5433 30.0034 28.5197 30.2196C28.6238 30.231 28.6994 30.3249 28.6876 30.429C28.677 30.5267 28.5945 30.5985 28.4991 30.5985Z" fill="#4A254B"/>
<path d="M19 8.36005C15.3216 8.36005 11.4566 7.99677 9.4802 7.78055C9.37608 7.76915 9.30046 7.67529 9.31224 7.57117C9.32364 7.46629 9.41864 7.39143 9.522 7.40283C11.4904 7.61829 15.3394 7.98005 19 7.98005C22.6605 7.98005 26.5095 7.61829 28.4779 7.40245C28.5801 7.39143 28.6759 7.46591 28.6877 7.57079C28.6991 7.67491 28.6238 7.76877 28.5197 7.78017C26.5433 7.99677 22.6784 8.36005 19 8.36005Z" fill="#4A254B"/>
</svg>